<mxfile host="app.diagrams.net" modified="2022-07-13T23:16:02.161Z" agent="5.0 (X11; Linux x86_64) AppleWebKit/537.36 (KHTML, like Gecko) Chrome/103.0.5060.53 Safari/537.36" etag="qFi650B3qUwjv8Q0ORD6" version="20.0.4" type="github">
  <diagram id="j50SQ7wF6UXe2rPwiIGU" name="Page-1">
    <mxGraphModel dx="1406" dy="831" grid="1" gridSize="10" guides="1" tooltips="1" connect="1" arrows="1" fold="1" page="1" pageScale="1" pageWidth="850" pageHeight="1100" math="1" shadow="0">
      <root>
        <mxCell id="0" />
        <mxCell id="1" parent="0" />
        <mxCell id="ENZ1LurqrBewXNudNiTN-1" value="$$X_0$$" style="rounded=0;whiteSpace=wrap;html=1;fontFamily=Times New Roman;fontSize=13;strokeWidth=2;" vertex="1" parent="1">
          <mxGeometry x="160" y="160" width="40" height="40" as="geometry" />
        </mxCell>
        <mxCell id="ENZ1LurqrBewXNudNiTN-2" value="&lt;font style=&quot;font-size: 13px;&quot;&gt;$$X_1$$&lt;/font&gt;" style="rounded=0;whiteSpace=wrap;html=1;strokeWidth=2;fontFamily=Times New Roman;fontSize=13;fillColor=default;strokeColor=default;" vertex="1" parent="1">
          <mxGeometry x="200" y="160" width="40" height="40" as="geometry" />
        </mxCell>
        <mxCell id="ENZ1LurqrBewXNudNiTN-3" value="$$X_2$$" style="rounded=0;whiteSpace=wrap;html=1;fontFamily=Times New Roman;fontSize=13;" vertex="1" parent="1">
          <mxGeometry x="240" y="160" width="40" height="40" as="geometry" />
        </mxCell>
        <mxCell id="ENZ1LurqrBewXNudNiTN-4" value="$$X_3$$" style="rounded=0;whiteSpace=wrap;html=1;strokeWidth=2;fontFamily=Times New Roman;fontSize=13;strokeColor=default;" vertex="1" parent="1">
          <mxGeometry x="280" y="160" width="40" height="40" as="geometry" />
        </mxCell>
        <mxCell id="ENZ1LurqrBewXNudNiTN-5" value="$$X_4$$" style="rounded=0;whiteSpace=wrap;html=1;fontFamily=Times New Roman;fontSize=13;" vertex="1" parent="1">
          <mxGeometry x="320" y="160" width="40" height="40" as="geometry" />
        </mxCell>
        <mxCell id="ENZ1LurqrBewXNudNiTN-6" value="$$X_5$$" style="rounded=0;whiteSpace=wrap;html=1;fontFamily=Times New Roman;fontSize=13;" vertex="1" parent="1">
          <mxGeometry x="360" y="160" width="40" height="40" as="geometry" />
        </mxCell>
        <mxCell id="ENZ1LurqrBewXNudNiTN-7" value="$$X_6$$" style="rounded=0;whiteSpace=wrap;html=1;fontFamily=Times New Roman;fontSize=13;" vertex="1" parent="1">
          <mxGeometry x="400" y="160" width="40" height="40" as="geometry" />
        </mxCell>
        <mxCell id="ENZ1LurqrBewXNudNiTN-8" value="$$X_7$$" style="rounded=0;whiteSpace=wrap;html=1;fontFamily=Times New Roman;fontSize=13;strokeWidth=2;" vertex="1" parent="1">
          <mxGeometry x="440" y="160" width="40" height="40" as="geometry" />
        </mxCell>
        <mxCell id="ENZ1LurqrBewXNudNiTN-9" value="$$X_8$$" style="rounded=0;whiteSpace=wrap;html=1;fontFamily=Times New Roman;fontSize=13;" vertex="1" parent="1">
          <mxGeometry x="480" y="160" width="40" height="40" as="geometry" />
        </mxCell>
        <mxCell id="ENZ1LurqrBewXNudNiTN-10" value="$$X_9$$" style="rounded=0;whiteSpace=wrap;html=1;fontFamily=Times New Roman;fontSize=13;strokeWidth=2;" vertex="1" parent="1">
          <mxGeometry x="520" y="160" width="40" height="40" as="geometry" />
        </mxCell>
        <mxCell id="ENZ1LurqrBewXNudNiTN-11" value="1" style="rounded=0;whiteSpace=wrap;html=1;fontFamily=Times New Roman;fontSize=15;strokeWidth=2;" vertex="1" parent="1">
          <mxGeometry x="160" y="214" width="40" height="40" as="geometry" />
        </mxCell>
        <mxCell id="ENZ1LurqrBewXNudNiTN-12" value="1" style="rounded=0;whiteSpace=wrap;html=1;strokeColor=default;strokeWidth=2;fontFamily=Times New Roman;fontSize=15;" vertex="1" parent="1">
          <mxGeometry x="200" y="214" width="40" height="40" as="geometry" />
        </mxCell>
        <mxCell id="ENZ1LurqrBewXNudNiTN-13" value="0" style="rounded=0;whiteSpace=wrap;html=1;fontFamily=Times New Roman;fontSize=15;" vertex="1" parent="1">
          <mxGeometry x="240" y="214" width="40" height="40" as="geometry" />
        </mxCell>
        <mxCell id="ENZ1LurqrBewXNudNiTN-14" value="&lt;span style=&quot;color: rgb(0, 0, 0); font-size: 15px; font-style: normal; font-variant-ligatures: normal; font-variant-caps: normal; font-weight: 400; letter-spacing: normal; orphans: 2; text-align: center; text-indent: 0px; text-transform: none; widows: 2; word-spacing: 0px; -webkit-text-stroke-width: 0px; background-color: rgb(248, 249, 250); text-decoration-thickness: initial; text-decoration-style: initial; text-decoration-color: initial; float: none; display: inline !important;&quot;&gt;1&lt;/span&gt;" style="rounded=0;whiteSpace=wrap;html=1;strokeColor=default;strokeWidth=2;fontFamily=Times New Roman;fontSize=15;" vertex="1" parent="1">
          <mxGeometry x="280" y="214" width="40" height="40" as="geometry" />
        </mxCell>
        <mxCell id="ENZ1LurqrBewXNudNiTN-15" value="0" style="rounded=0;whiteSpace=wrap;html=1;fontFamily=Times New Roman;fontSize=15;" vertex="1" parent="1">
          <mxGeometry x="320" y="214" width="40" height="40" as="geometry" />
        </mxCell>
        <mxCell id="ENZ1LurqrBewXNudNiTN-16" value="0" style="rounded=0;whiteSpace=wrap;html=1;fontFamily=Times New Roman;fontSize=15;" vertex="1" parent="1">
          <mxGeometry x="360" y="214" width="40" height="40" as="geometry" />
        </mxCell>
        <mxCell id="ENZ1LurqrBewXNudNiTN-17" value="0" style="rounded=0;whiteSpace=wrap;html=1;fontFamily=Times New Roman;fontSize=15;" vertex="1" parent="1">
          <mxGeometry x="400" y="214" width="40" height="40" as="geometry" />
        </mxCell>
        <mxCell id="ENZ1LurqrBewXNudNiTN-18" value="1" style="rounded=0;whiteSpace=wrap;html=1;fontFamily=Times New Roman;fontSize=15;strokeWidth=2;" vertex="1" parent="1">
          <mxGeometry x="440" y="214" width="40" height="40" as="geometry" />
        </mxCell>
        <mxCell id="ENZ1LurqrBewXNudNiTN-19" value="0" style="rounded=0;whiteSpace=wrap;html=1;fontFamily=Times New Roman;fontSize=15;" vertex="1" parent="1">
          <mxGeometry x="480" y="214" width="40" height="40" as="geometry" />
        </mxCell>
        <mxCell id="ENZ1LurqrBewXNudNiTN-20" value="1" style="rounded=0;whiteSpace=wrap;html=1;fontFamily=Times New Roman;fontSize=15;strokeWidth=2;" vertex="1" parent="1">
          <mxGeometry x="520" y="214" width="40" height="40" as="geometry" />
        </mxCell>
        <mxCell id="ENZ1LurqrBewXNudNiTN-53" value="Inputs" style="text;html=1;strokeColor=none;fillColor=none;align=center;verticalAlign=middle;whiteSpace=wrap;rounded=0;fontFamily=Times New Roman;fontSize=14;" vertex="1" parent="1">
          <mxGeometry x="103" y="167" width="60" height="30" as="geometry" />
        </mxCell>
        <mxCell id="ENZ1LurqrBewXNudNiTN-54" value="Mask" style="text;html=1;strokeColor=none;fillColor=none;align=center;verticalAlign=middle;whiteSpace=wrap;rounded=0;fontFamily=Times New Roman;fontSize=14;" vertex="1" parent="1">
          <mxGeometry x="103" y="221" width="60" height="30" as="geometry" />
        </mxCell>
        <mxCell id="ENZ1LurqrBewXNudNiTN-56" value="$$X_0$$" style="rounded=0;whiteSpace=wrap;html=1;fontFamily=Times New Roman;fontSize=13;" vertex="1" parent="1">
          <mxGeometry x="168.5" y="340" width="40" height="39" as="geometry" />
        </mxCell>
        <mxCell id="ENZ1LurqrBewXNudNiTN-58" value="$$X_2$$" style="rounded=0;whiteSpace=wrap;html=1;fontFamily=Times New Roman;fontSize=13;" vertex="1" parent="1">
          <mxGeometry x="248.5" y="340" width="40" height="39" as="geometry" />
        </mxCell>
        <mxCell id="ENZ1LurqrBewXNudNiTN-59" value="$$X_3$$" style="rounded=0;whiteSpace=wrap;html=1;strokeWidth=3;fontFamily=Times New Roman;fontSize=13;strokeColor=default;dashed=1;dashPattern=1 1;" vertex="1" parent="1">
          <mxGeometry x="288.5" y="340" width="40" height="39" as="geometry" />
        </mxCell>
        <mxCell id="ENZ1LurqrBewXNudNiTN-60" value="$$X_4$$" style="rounded=0;whiteSpace=wrap;html=1;fontFamily=Times New Roman;fontSize=13;" vertex="1" parent="1">
          <mxGeometry x="328.5" y="340" width="40" height="39" as="geometry" />
        </mxCell>
        <mxCell id="ENZ1LurqrBewXNudNiTN-61" value="$$X_5$$" style="rounded=0;whiteSpace=wrap;html=1;fontFamily=Times New Roman;fontSize=13;" vertex="1" parent="1">
          <mxGeometry x="368.5" y="340" width="40" height="39" as="geometry" />
        </mxCell>
        <mxCell id="ENZ1LurqrBewXNudNiTN-62" value="$$X_6$$" style="rounded=0;whiteSpace=wrap;html=1;fontFamily=Times New Roman;fontSize=13;" vertex="1" parent="1">
          <mxGeometry x="408.5" y="340" width="40" height="39" as="geometry" />
        </mxCell>
        <mxCell id="ENZ1LurqrBewXNudNiTN-63" value="$$X_7$$" style="rounded=0;whiteSpace=wrap;html=1;fontFamily=Times New Roman;fontSize=13;" vertex="1" parent="1">
          <mxGeometry x="448.5" y="340" width="40" height="39" as="geometry" />
        </mxCell>
        <mxCell id="ENZ1LurqrBewXNudNiTN-64" value="$$X_8$$" style="rounded=0;whiteSpace=wrap;html=1;fontFamily=Times New Roman;fontSize=13;" vertex="1" parent="1">
          <mxGeometry x="488.5" y="340" width="40" height="39" as="geometry" />
        </mxCell>
        <mxCell id="ENZ1LurqrBewXNudNiTN-65" value="$$X_9$$" style="rounded=0;whiteSpace=wrap;html=1;fontFamily=Times New Roman;fontSize=13;" vertex="1" parent="1">
          <mxGeometry x="528.5" y="340" width="40" height="39" as="geometry" />
        </mxCell>
        <mxCell id="ENZ1LurqrBewXNudNiTN-66" value="1" style="rounded=0;whiteSpace=wrap;html=1;fontFamily=Times New Roman;fontSize=15;" vertex="1" parent="1">
          <mxGeometry x="168.5" y="394" width="40" height="39" as="geometry" />
        </mxCell>
        <mxCell id="ENZ1LurqrBewXNudNiTN-67" value="0" style="rounded=0;whiteSpace=wrap;html=1;strokeColor=default;strokeWidth=3;fontFamily=Times New Roman;fontSize=15;dashed=1;dashPattern=1 1;" vertex="1" parent="1">
          <mxGeometry x="208.5" y="394" width="40" height="39" as="geometry" />
        </mxCell>
        <mxCell id="ENZ1LurqrBewXNudNiTN-68" value="0" style="rounded=0;whiteSpace=wrap;html=1;fontFamily=Times New Roman;fontSize=15;" vertex="1" parent="1">
          <mxGeometry x="248.5" y="394" width="40" height="39" as="geometry" />
        </mxCell>
        <mxCell id="ENZ1LurqrBewXNudNiTN-69" value="&lt;span style=&quot;color: rgb(0, 0, 0); font-size: 15px; font-style: normal; font-variant-ligatures: normal; font-variant-caps: normal; font-weight: 400; letter-spacing: normal; orphans: 2; text-align: center; text-indent: 0px; text-transform: none; widows: 2; word-spacing: 0px; -webkit-text-stroke-width: 0px; background-color: rgb(248, 249, 250); text-decoration-thickness: initial; text-decoration-style: initial; text-decoration-color: initial; float: none; display: inline !important;&quot;&gt;0&lt;/span&gt;" style="rounded=0;whiteSpace=wrap;html=1;strokeColor=default;strokeWidth=3;fontFamily=Times New Roman;fontSize=15;dashed=1;dashPattern=1 1;" vertex="1" parent="1">
          <mxGeometry x="288.5" y="394" width="40" height="39" as="geometry" />
        </mxCell>
        <mxCell id="ENZ1LurqrBewXNudNiTN-70" value="0" style="rounded=0;whiteSpace=wrap;html=1;fontFamily=Times New Roman;fontSize=15;" vertex="1" parent="1">
          <mxGeometry x="328.5" y="394" width="40" height="39" as="geometry" />
        </mxCell>
        <mxCell id="ENZ1LurqrBewXNudNiTN-71" value="0" style="rounded=0;whiteSpace=wrap;html=1;fontFamily=Times New Roman;fontSize=15;" vertex="1" parent="1">
          <mxGeometry x="368.5" y="394" width="40" height="39" as="geometry" />
        </mxCell>
        <mxCell id="ENZ1LurqrBewXNudNiTN-72" value="0" style="rounded=0;whiteSpace=wrap;html=1;fontFamily=Times New Roman;fontSize=15;" vertex="1" parent="1">
          <mxGeometry x="408.5" y="394" width="40" height="39" as="geometry" />
        </mxCell>
        <mxCell id="ENZ1LurqrBewXNudNiTN-73" value="1" style="rounded=0;whiteSpace=wrap;html=1;fontFamily=Times New Roman;fontSize=15;" vertex="1" parent="1">
          <mxGeometry x="448.5" y="394" width="40" height="39" as="geometry" />
        </mxCell>
        <mxCell id="ENZ1LurqrBewXNudNiTN-74" value="0" style="rounded=0;whiteSpace=wrap;html=1;fontFamily=Times New Roman;fontSize=15;" vertex="1" parent="1">
          <mxGeometry x="488.5" y="394" width="40" height="39" as="geometry" />
        </mxCell>
        <mxCell id="ENZ1LurqrBewXNudNiTN-75" value="1" style="rounded=0;whiteSpace=wrap;html=1;fontFamily=Times New Roman;fontSize=15;" vertex="1" parent="1">
          <mxGeometry x="528.5" y="394" width="40" height="39" as="geometry" />
        </mxCell>
        <mxCell id="ENZ1LurqrBewXNudNiTN-76" value="Inputs" style="text;html=1;strokeColor=none;fillColor=none;align=center;verticalAlign=middle;whiteSpace=wrap;rounded=0;fontFamily=Times New Roman;fontSize=14;" vertex="1" parent="1">
          <mxGeometry x="111.5" y="347" width="60" height="29" as="geometry" />
        </mxCell>
        <mxCell id="ENZ1LurqrBewXNudNiTN-77" value="Mask" style="text;html=1;strokeColor=none;fillColor=none;align=center;verticalAlign=middle;whiteSpace=wrap;rounded=0;fontFamily=Times New Roman;fontSize=14;" vertex="1" parent="1">
          <mxGeometry x="111.5" y="401" width="60" height="29" as="geometry" />
        </mxCell>
        <mxCell id="ENZ1LurqrBewXNudNiTN-78" value="$$X_6$$" style="rounded=0;whiteSpace=wrap;html=1;fontFamily=Times New Roman;fontSize=13;strokeWidth=3;dashed=1;dashPattern=1 1;" vertex="1" parent="1">
          <mxGeometry x="208.5" y="340" width="40" height="39" as="geometry" />
        </mxCell>
      </root>
    </mxGraphModel>
  </diagram>
</mxfile>
